<mxfile host="app.diagrams.net" agent="Mozilla/5.0 (Windows NT 10.0; Win64; x64) AppleWebKit/537.36 (KHTML, like Gecko) Chrome/128.0.0.0 Safari/537.36 Edg/128.0.0.0" version="24.7.10">
  <diagram name="Página-1" id="ekZOfpOXQNPrcKu1eCZT">
    <mxGraphModel dx="1228" dy="696" grid="1" gridSize="10" guides="1" tooltips="1" connect="1" arrows="1" fold="1" page="1" pageScale="1" pageWidth="1169" pageHeight="827" math="0" shadow="0">
      <root>
        <mxCell id="0" />
        <mxCell id="1" parent="0" />
        <mxCell id="M5pZgA5gpFIr3mLiZO6Y-33" value="&lt;span data-teams=&quot;true&quot; style=&quot;font-size: 18px;&quot;&gt;&lt;span class=&quot;ui-provider ix nl nm nn no np nq nr ns nt nu nv nw nx ny nz oa ob oc od oe of og oh oi oj ok ol om on oo op oq or os&quot; dir=&quot;ltr&quot; style=&quot;font-size: 18px;&quot;&gt;1. Faça um Diagrama E-R para as encomendas online da Pizzaria Ital. A pizzaria pretende&lt;/span&gt;&lt;/span&gt;&lt;div style=&quot;font-size: 18px;&quot;&gt;&lt;span data-teams=&quot;true&quot; style=&quot;font-size: 18px;&quot;&gt;&lt;span class=&quot;ui-provider ix nl nm nn no np nq nr ns nt nu nv nw nx ny nz oa ob oc od oe of og oh oi oj ok ol om on oo op oq or os&quot; dir=&quot;ltr&quot; style=&quot;font-size: 18px;&quot;&gt;guardar os dados das&amp;nbsp;encomendas feitas por cada cliente. Cada encomenda possui&lt;/span&gt;&lt;/span&gt;&lt;/div&gt;&lt;div style=&quot;font-size: 18px;&quot;&gt;&lt;span data-teams=&quot;true&quot; style=&quot;font-size: 18px;&quot;&gt;&lt;span class=&quot;ui-provider ix nl nm nn no np nq nr ns nt nu nv nw nx ny nz oa ob oc od oe of og oh oi oj ok ol om on oo op oq or os&quot; dir=&quot;ltr&quot; style=&quot;font-size: 18px;&quot;&gt;vários produtos, cada produto tem uma categoria&amp;nbsp;(exemplo: pizza, refrigerante, etc…) e&lt;/span&gt;&lt;/span&gt;&lt;/div&gt;&lt;div style=&quot;font-size: 18px;&quot;&gt;&lt;span data-teams=&quot;true&quot; style=&quot;font-size: 18px;&quot;&gt;&lt;span class=&quot;ui-provider ix nl nm nn no np nq nr ns nt nu nv nw nx ny nz oa ob oc od oe of og oh oi oj ok ol om on oo op oq or os&quot; dir=&quot;ltr&quot; style=&quot;font-size: 18px;&quot;&gt;cada produto pode estar em várias encomendas. Pretende ainda saber que&amp;nbsp;entregador&lt;/span&gt;&lt;/span&gt;&lt;/div&gt;&lt;div style=&quot;font-size: 18px;&quot;&gt;&lt;span data-teams=&quot;true&quot; style=&quot;font-size: 18px;&quot;&gt;&lt;span class=&quot;ui-provider ix nl nm nn no np nq nr ns nt nu nv nw nx ny nz oa ob oc od oe of og oh oi oj ok ol om on oo op oq or os&quot; dir=&quot;ltr&quot; style=&quot;font-size: 18px;&quot;&gt;entregou cada encomenda e o pagamento associado a mesma.&lt;/span&gt;&lt;/span&gt;&lt;/div&gt;" style="text;html=1;align=left;verticalAlign=middle;resizable=0;points=[];autosize=1;strokeColor=none;fillColor=none;fontSize=18;spacing=2;fontStyle=1" vertex="1" parent="1">
          <mxGeometry x="40" y="40" width="740" height="120" as="geometry" />
        </mxCell>
        <mxCell id="M5pZgA5gpFIr3mLiZO6Y-88" value="" style="edgeStyle=none;shape=connector;rounded=0;orthogonalLoop=1;jettySize=auto;html=1;strokeColor=default;align=center;verticalAlign=middle;fontFamily=Helvetica;fontSize=11;fontColor=default;labelBackgroundColor=default;endArrow=none;endFill=0;" edge="1" parent="1" source="M5pZgA5gpFIr3mLiZO6Y-34" target="M5pZgA5gpFIr3mLiZO6Y-81">
          <mxGeometry relative="1" as="geometry" />
        </mxCell>
        <mxCell id="M5pZgA5gpFIr3mLiZO6Y-34" value="Pizzaria" style="whiteSpace=wrap;html=1;align=center;" vertex="1" parent="1">
          <mxGeometry x="200" y="280" width="100" height="40" as="geometry" />
        </mxCell>
        <mxCell id="M5pZgA5gpFIr3mLiZO6Y-93" style="edgeStyle=none;shape=connector;rounded=0;orthogonalLoop=1;jettySize=auto;html=1;strokeColor=default;align=center;verticalAlign=middle;fontFamily=Helvetica;fontSize=11;fontColor=default;labelBackgroundColor=default;endArrow=none;endFill=0;startArrow=ERone;startFill=0;" edge="1" parent="1" source="M5pZgA5gpFIr3mLiZO6Y-35" target="M5pZgA5gpFIr3mLiZO6Y-83">
          <mxGeometry relative="1" as="geometry" />
        </mxCell>
        <mxCell id="M5pZgA5gpFIr3mLiZO6Y-97" style="edgeStyle=orthogonalEdgeStyle;shape=connector;rounded=0;orthogonalLoop=1;jettySize=auto;html=1;exitX=0.75;exitY=1;exitDx=0;exitDy=0;strokeColor=default;align=center;verticalAlign=middle;fontFamily=Helvetica;fontSize=11;fontColor=default;labelBackgroundColor=default;endArrow=none;endFill=0;startArrow=ERmany;startFill=0;entryX=0;entryY=0.5;entryDx=0;entryDy=0;" edge="1" parent="1" source="M5pZgA5gpFIr3mLiZO6Y-35" target="M5pZgA5gpFIr3mLiZO6Y-84">
          <mxGeometry relative="1" as="geometry" />
        </mxCell>
        <mxCell id="M5pZgA5gpFIr3mLiZO6Y-35" value="Encomenda" style="whiteSpace=wrap;html=1;align=center;" vertex="1" parent="1">
          <mxGeometry x="580" y="280" width="100" height="40" as="geometry" />
        </mxCell>
        <mxCell id="M5pZgA5gpFIr3mLiZO6Y-36" value="Cliente" style="whiteSpace=wrap;html=1;align=center;" vertex="1" parent="1">
          <mxGeometry x="240" y="492.5" width="100" height="40" as="geometry" />
        </mxCell>
        <mxCell id="M5pZgA5gpFIr3mLiZO6Y-37" value="Produto" style="whiteSpace=wrap;html=1;align=center;" vertex="1" parent="1">
          <mxGeometry x="890" y="502.5" width="100" height="40" as="geometry" />
        </mxCell>
        <mxCell id="M5pZgA5gpFIr3mLiZO6Y-38" value="Categora" style="whiteSpace=wrap;html=1;align=center;" vertex="1" parent="1">
          <mxGeometry x="830" y="20" width="100" height="40" as="geometry" />
        </mxCell>
        <mxCell id="M5pZgA5gpFIr3mLiZO6Y-39" value="Entregador" style="whiteSpace=wrap;html=1;align=center;" vertex="1" parent="1">
          <mxGeometry x="970" y="280" width="100" height="40" as="geometry" />
        </mxCell>
        <mxCell id="M5pZgA5gpFIr3mLiZO6Y-40" value="Pagamento" style="whiteSpace=wrap;html=1;align=center;" vertex="1" parent="1">
          <mxGeometry x="580" y="602.5" width="100" height="40" as="geometry" />
        </mxCell>
        <mxCell id="M5pZgA5gpFIr3mLiZO6Y-45" style="rounded=0;orthogonalLoop=1;jettySize=auto;html=1;endArrow=none;endFill=0;" edge="1" parent="1" source="M5pZgA5gpFIr3mLiZO6Y-41" target="M5pZgA5gpFIr3mLiZO6Y-34">
          <mxGeometry relative="1" as="geometry" />
        </mxCell>
        <mxCell id="M5pZgA5gpFIr3mLiZO6Y-41" value="Nome" style="ellipse;whiteSpace=wrap;html=1;align=center;" vertex="1" parent="1">
          <mxGeometry x="60" y="190" width="100" height="40" as="geometry" />
        </mxCell>
        <mxCell id="M5pZgA5gpFIr3mLiZO6Y-44" style="rounded=0;orthogonalLoop=1;jettySize=auto;html=1;endArrow=none;endFill=0;" edge="1" parent="1" source="M5pZgA5gpFIr3mLiZO6Y-42" target="M5pZgA5gpFIr3mLiZO6Y-34">
          <mxGeometry relative="1" as="geometry" />
        </mxCell>
        <mxCell id="M5pZgA5gpFIr3mLiZO6Y-42" value="Morada" style="ellipse;whiteSpace=wrap;html=1;align=center;" vertex="1" parent="1">
          <mxGeometry x="190" y="180" width="100" height="40" as="geometry" />
        </mxCell>
        <mxCell id="M5pZgA5gpFIr3mLiZO6Y-46" style="rounded=0;orthogonalLoop=1;jettySize=auto;html=1;endArrow=none;endFill=0;" edge="1" parent="1" source="M5pZgA5gpFIr3mLiZO6Y-43" target="M5pZgA5gpFIr3mLiZO6Y-34">
          <mxGeometry relative="1" as="geometry" />
        </mxCell>
        <mxCell id="M5pZgA5gpFIr3mLiZO6Y-43" value="Telefone" style="ellipse;whiteSpace=wrap;html=1;align=center;" vertex="1" parent="1">
          <mxGeometry x="30" y="280" width="100" height="40" as="geometry" />
        </mxCell>
        <mxCell id="M5pZgA5gpFIr3mLiZO6Y-47" value="Número" style="ellipse;whiteSpace=wrap;html=1;align=center;" vertex="1" parent="1">
          <mxGeometry x="500" y="200" width="100" height="40" as="geometry" />
        </mxCell>
        <mxCell id="M5pZgA5gpFIr3mLiZO6Y-48" value="Hora" style="ellipse;whiteSpace=wrap;html=1;align=center;" vertex="1" parent="1">
          <mxGeometry x="620" y="200" width="100" height="40" as="geometry" />
        </mxCell>
        <mxCell id="M5pZgA5gpFIr3mLiZO6Y-49" value="Data" style="ellipse;whiteSpace=wrap;html=1;align=center;" vertex="1" parent="1">
          <mxGeometry x="730" y="200" width="100" height="40" as="geometry" />
        </mxCell>
        <mxCell id="M5pZgA5gpFIr3mLiZO6Y-50" value="Valor" style="ellipse;whiteSpace=wrap;html=1;align=center;" vertex="1" parent="1">
          <mxGeometry x="460" y="330" width="100" height="40" as="geometry" />
        </mxCell>
        <mxCell id="M5pZgA5gpFIr3mLiZO6Y-51" style="rounded=0;orthogonalLoop=1;jettySize=auto;html=1;endArrow=none;endFill=0;" edge="1" parent="1" source="M5pZgA5gpFIr3mLiZO6Y-47" target="M5pZgA5gpFIr3mLiZO6Y-35">
          <mxGeometry relative="1" as="geometry">
            <mxPoint x="252" y="230" as="sourcePoint" />
            <mxPoint x="258" y="290" as="targetPoint" />
          </mxGeometry>
        </mxCell>
        <mxCell id="M5pZgA5gpFIr3mLiZO6Y-52" style="rounded=0;orthogonalLoop=1;jettySize=auto;html=1;endArrow=none;endFill=0;" edge="1" parent="1" source="M5pZgA5gpFIr3mLiZO6Y-48" target="M5pZgA5gpFIr3mLiZO6Y-35">
          <mxGeometry relative="1" as="geometry">
            <mxPoint x="262" y="240" as="sourcePoint" />
            <mxPoint x="268" y="300" as="targetPoint" />
          </mxGeometry>
        </mxCell>
        <mxCell id="M5pZgA5gpFIr3mLiZO6Y-53" style="rounded=0;orthogonalLoop=1;jettySize=auto;html=1;endArrow=none;endFill=0;" edge="1" parent="1" source="M5pZgA5gpFIr3mLiZO6Y-49" target="M5pZgA5gpFIr3mLiZO6Y-35">
          <mxGeometry relative="1" as="geometry">
            <mxPoint x="272" y="250" as="sourcePoint" />
            <mxPoint x="278" y="310" as="targetPoint" />
          </mxGeometry>
        </mxCell>
        <mxCell id="M5pZgA5gpFIr3mLiZO6Y-54" style="rounded=0;orthogonalLoop=1;jettySize=auto;html=1;endArrow=none;endFill=0;" edge="1" parent="1" source="M5pZgA5gpFIr3mLiZO6Y-50" target="M5pZgA5gpFIr3mLiZO6Y-35">
          <mxGeometry relative="1" as="geometry">
            <mxPoint x="282" y="260" as="sourcePoint" />
            <mxPoint x="288" y="320" as="targetPoint" />
          </mxGeometry>
        </mxCell>
        <mxCell id="M5pZgA5gpFIr3mLiZO6Y-69" style="edgeStyle=none;shape=connector;rounded=0;orthogonalLoop=1;jettySize=auto;html=1;strokeColor=default;align=center;verticalAlign=middle;fontFamily=Helvetica;fontSize=11;fontColor=default;labelBackgroundColor=default;endArrow=none;endFill=0;" edge="1" parent="1" source="M5pZgA5gpFIr3mLiZO6Y-56" target="M5pZgA5gpFIr3mLiZO6Y-37">
          <mxGeometry relative="1" as="geometry" />
        </mxCell>
        <mxCell id="M5pZgA5gpFIr3mLiZO6Y-56" value="Nome" style="ellipse;whiteSpace=wrap;html=1;align=center;" vertex="1" parent="1">
          <mxGeometry x="1020" y="492.5" width="100" height="40" as="geometry" />
        </mxCell>
        <mxCell id="M5pZgA5gpFIr3mLiZO6Y-70" style="edgeStyle=none;shape=connector;rounded=0;orthogonalLoop=1;jettySize=auto;html=1;strokeColor=default;align=center;verticalAlign=middle;fontFamily=Helvetica;fontSize=11;fontColor=default;labelBackgroundColor=default;endArrow=none;endFill=0;" edge="1" parent="1" source="M5pZgA5gpFIr3mLiZO6Y-57" target="M5pZgA5gpFIr3mLiZO6Y-37">
          <mxGeometry relative="1" as="geometry" />
        </mxCell>
        <mxCell id="M5pZgA5gpFIr3mLiZO6Y-57" value="Tipo de massa" style="ellipse;whiteSpace=wrap;html=1;align=center;" vertex="1" parent="1">
          <mxGeometry x="1010" y="562.5" width="100" height="40" as="geometry" />
        </mxCell>
        <mxCell id="M5pZgA5gpFIr3mLiZO6Y-71" style="edgeStyle=none;shape=connector;rounded=0;orthogonalLoop=1;jettySize=auto;html=1;strokeColor=default;align=center;verticalAlign=middle;fontFamily=Helvetica;fontSize=11;fontColor=default;labelBackgroundColor=default;endArrow=none;endFill=0;" edge="1" parent="1" source="M5pZgA5gpFIr3mLiZO6Y-58" target="M5pZgA5gpFIr3mLiZO6Y-37">
          <mxGeometry relative="1" as="geometry" />
        </mxCell>
        <mxCell id="M5pZgA5gpFIr3mLiZO6Y-58" value="Categora" style="ellipse;whiteSpace=wrap;html=1;align=center;" vertex="1" parent="1">
          <mxGeometry x="900" y="587.5" width="100" height="40" as="geometry" />
        </mxCell>
        <mxCell id="M5pZgA5gpFIr3mLiZO6Y-73" style="edgeStyle=none;shape=connector;rounded=0;orthogonalLoop=1;jettySize=auto;html=1;strokeColor=default;align=center;verticalAlign=middle;fontFamily=Helvetica;fontSize=11;fontColor=default;labelBackgroundColor=default;endArrow=none;endFill=0;" edge="1" parent="1" source="M5pZgA5gpFIr3mLiZO6Y-59" target="M5pZgA5gpFIr3mLiZO6Y-36">
          <mxGeometry relative="1" as="geometry" />
        </mxCell>
        <mxCell id="M5pZgA5gpFIr3mLiZO6Y-59" value="Nome" style="ellipse;whiteSpace=wrap;html=1;align=center;" vertex="1" parent="1">
          <mxGeometry x="90" y="414" width="100" height="40" as="geometry" />
        </mxCell>
        <mxCell id="M5pZgA5gpFIr3mLiZO6Y-74" style="edgeStyle=none;shape=connector;rounded=0;orthogonalLoop=1;jettySize=auto;html=1;strokeColor=default;align=center;verticalAlign=middle;fontFamily=Helvetica;fontSize=11;fontColor=default;labelBackgroundColor=default;endArrow=none;endFill=0;" edge="1" parent="1" source="M5pZgA5gpFIr3mLiZO6Y-60" target="M5pZgA5gpFIr3mLiZO6Y-36">
          <mxGeometry relative="1" as="geometry" />
        </mxCell>
        <mxCell id="M5pZgA5gpFIr3mLiZO6Y-60" value="Morada" style="ellipse;whiteSpace=wrap;html=1;align=center;" vertex="1" parent="1">
          <mxGeometry x="60" y="502.5" width="100" height="40" as="geometry" />
        </mxCell>
        <mxCell id="M5pZgA5gpFIr3mLiZO6Y-72" style="edgeStyle=none;shape=connector;rounded=0;orthogonalLoop=1;jettySize=auto;html=1;strokeColor=default;align=center;verticalAlign=middle;fontFamily=Helvetica;fontSize=11;fontColor=default;labelBackgroundColor=default;endArrow=none;endFill=0;" edge="1" parent="1" source="M5pZgA5gpFIr3mLiZO6Y-61" target="M5pZgA5gpFIr3mLiZO6Y-37">
          <mxGeometry relative="1" as="geometry" />
        </mxCell>
        <mxCell id="M5pZgA5gpFIr3mLiZO6Y-61" value="Valor" style="ellipse;whiteSpace=wrap;html=1;align=center;" vertex="1" parent="1">
          <mxGeometry x="780" y="562.5" width="100" height="40" as="geometry" />
        </mxCell>
        <mxCell id="M5pZgA5gpFIr3mLiZO6Y-75" style="edgeStyle=none;shape=connector;rounded=0;orthogonalLoop=1;jettySize=auto;html=1;strokeColor=default;align=center;verticalAlign=middle;fontFamily=Helvetica;fontSize=11;fontColor=default;labelBackgroundColor=default;endArrow=none;endFill=0;" edge="1" parent="1" source="M5pZgA5gpFIr3mLiZO6Y-62" target="M5pZgA5gpFIr3mLiZO6Y-36">
          <mxGeometry relative="1" as="geometry" />
        </mxCell>
        <mxCell id="M5pZgA5gpFIr3mLiZO6Y-62" value="NIF" style="ellipse;whiteSpace=wrap;html=1;align=center;" vertex="1" parent="1">
          <mxGeometry x="80" y="580" width="100" height="40" as="geometry" />
        </mxCell>
        <mxCell id="M5pZgA5gpFIr3mLiZO6Y-66" style="edgeStyle=none;shape=connector;rounded=0;orthogonalLoop=1;jettySize=auto;html=1;strokeColor=default;align=center;verticalAlign=middle;fontFamily=Helvetica;fontSize=11;fontColor=default;labelBackgroundColor=default;endArrow=none;endFill=0;" edge="1" parent="1" source="M5pZgA5gpFIr3mLiZO6Y-63" target="M5pZgA5gpFIr3mLiZO6Y-39">
          <mxGeometry relative="1" as="geometry" />
        </mxCell>
        <mxCell id="M5pZgA5gpFIr3mLiZO6Y-63" value="Nome" style="ellipse;whiteSpace=wrap;html=1;align=center;" vertex="1" parent="1">
          <mxGeometry x="970" y="180" width="100" height="40" as="geometry" />
        </mxCell>
        <mxCell id="M5pZgA5gpFIr3mLiZO6Y-67" style="edgeStyle=none;shape=connector;rounded=0;orthogonalLoop=1;jettySize=auto;html=1;strokeColor=default;align=center;verticalAlign=middle;fontFamily=Helvetica;fontSize=11;fontColor=default;labelBackgroundColor=default;endArrow=none;endFill=0;" edge="1" parent="1" source="M5pZgA5gpFIr3mLiZO6Y-64" target="M5pZgA5gpFIr3mLiZO6Y-39">
          <mxGeometry relative="1" as="geometry" />
        </mxCell>
        <mxCell id="M5pZgA5gpFIr3mLiZO6Y-64" value="Telefone" style="ellipse;whiteSpace=wrap;html=1;align=center;" vertex="1" parent="1">
          <mxGeometry x="1080" y="210" width="100" height="40" as="geometry" />
        </mxCell>
        <mxCell id="M5pZgA5gpFIr3mLiZO6Y-68" style="edgeStyle=none;shape=connector;rounded=0;orthogonalLoop=1;jettySize=auto;html=1;strokeColor=default;align=center;verticalAlign=middle;fontFamily=Helvetica;fontSize=11;fontColor=default;labelBackgroundColor=default;endArrow=none;endFill=0;" edge="1" parent="1" source="M5pZgA5gpFIr3mLiZO6Y-65" target="M5pZgA5gpFIr3mLiZO6Y-39">
          <mxGeometry relative="1" as="geometry" />
        </mxCell>
        <mxCell id="M5pZgA5gpFIr3mLiZO6Y-65" value="Tipo de transporte" style="ellipse;whiteSpace=wrap;html=1;align=center;" vertex="1" parent="1">
          <mxGeometry x="1130" y="290" width="100" height="40" as="geometry" />
        </mxCell>
        <mxCell id="M5pZgA5gpFIr3mLiZO6Y-79" style="edgeStyle=none;shape=connector;rounded=0;orthogonalLoop=1;jettySize=auto;html=1;strokeColor=default;align=center;verticalAlign=middle;fontFamily=Helvetica;fontSize=11;fontColor=default;labelBackgroundColor=default;endArrow=none;endFill=0;" edge="1" parent="1" source="M5pZgA5gpFIr3mLiZO6Y-77" target="M5pZgA5gpFIr3mLiZO6Y-40">
          <mxGeometry relative="1" as="geometry" />
        </mxCell>
        <mxCell id="M5pZgA5gpFIr3mLiZO6Y-77" value="Tipo pagamento" style="ellipse;whiteSpace=wrap;html=1;align=center;fontFamily=Helvetica;fontSize=11;fontColor=default;labelBackgroundColor=default;" vertex="1" parent="1">
          <mxGeometry x="410" y="562.5" width="100" height="40" as="geometry" />
        </mxCell>
        <mxCell id="M5pZgA5gpFIr3mLiZO6Y-80" style="edgeStyle=none;shape=connector;rounded=0;orthogonalLoop=1;jettySize=auto;html=1;strokeColor=default;align=center;verticalAlign=middle;fontFamily=Helvetica;fontSize=11;fontColor=default;labelBackgroundColor=default;endArrow=none;endFill=0;" edge="1" parent="1" source="M5pZgA5gpFIr3mLiZO6Y-78" target="M5pZgA5gpFIr3mLiZO6Y-40">
          <mxGeometry relative="1" as="geometry" />
        </mxCell>
        <mxCell id="M5pZgA5gpFIr3mLiZO6Y-78" value="Attribute" style="ellipse;whiteSpace=wrap;html=1;align=center;fontFamily=Helvetica;fontSize=11;fontColor=default;labelBackgroundColor=default;" vertex="1" parent="1">
          <mxGeometry x="460" y="630" width="100" height="40" as="geometry" />
        </mxCell>
        <mxCell id="M5pZgA5gpFIr3mLiZO6Y-86" style="edgeStyle=none;shape=connector;rounded=0;orthogonalLoop=1;jettySize=auto;html=1;strokeColor=default;align=center;verticalAlign=middle;fontFamily=Helvetica;fontSize=11;fontColor=default;labelBackgroundColor=default;endArrow=ERmany;endFill=0;" edge="1" parent="1" source="M5pZgA5gpFIr3mLiZO6Y-81" target="M5pZgA5gpFIr3mLiZO6Y-35">
          <mxGeometry relative="1" as="geometry" />
        </mxCell>
        <mxCell id="M5pZgA5gpFIr3mLiZO6Y-87" style="edgeStyle=none;shape=connector;rounded=0;orthogonalLoop=1;jettySize=auto;html=1;strokeColor=default;align=center;verticalAlign=middle;fontFamily=Helvetica;fontSize=11;fontColor=default;labelBackgroundColor=default;endArrow=ERone;endFill=0;" edge="1" parent="1" source="M5pZgA5gpFIr3mLiZO6Y-81" target="M5pZgA5gpFIr3mLiZO6Y-34">
          <mxGeometry relative="1" as="geometry" />
        </mxCell>
        <mxCell id="M5pZgA5gpFIr3mLiZO6Y-81" value="Tem" style="shape=rhombus;perimeter=rhombusPerimeter;whiteSpace=wrap;html=1;align=center;fontFamily=Helvetica;fontSize=11;fontColor=default;labelBackgroundColor=default;" vertex="1" parent="1">
          <mxGeometry x="370" y="270" width="120" height="60" as="geometry" />
        </mxCell>
        <mxCell id="M5pZgA5gpFIr3mLiZO6Y-89" style="edgeStyle=orthogonalEdgeStyle;shape=connector;rounded=0;orthogonalLoop=1;jettySize=auto;html=1;strokeColor=default;align=center;verticalAlign=middle;fontFamily=Helvetica;fontSize=11;fontColor=default;labelBackgroundColor=default;endArrow=ERmany;endFill=0;entryX=0.25;entryY=1;entryDx=0;entryDy=0;" edge="1" parent="1" source="M5pZgA5gpFIr3mLiZO6Y-82" target="M5pZgA5gpFIr3mLiZO6Y-35">
          <mxGeometry relative="1" as="geometry" />
        </mxCell>
        <mxCell id="M5pZgA5gpFIr3mLiZO6Y-90" style="edgeStyle=orthogonalEdgeStyle;shape=connector;rounded=0;orthogonalLoop=1;jettySize=auto;html=1;strokeColor=default;align=center;verticalAlign=middle;fontFamily=Helvetica;fontSize=11;fontColor=default;labelBackgroundColor=default;endArrow=ERone;endFill=0;" edge="1" parent="1" source="M5pZgA5gpFIr3mLiZO6Y-82" target="M5pZgA5gpFIr3mLiZO6Y-36">
          <mxGeometry relative="1" as="geometry" />
        </mxCell>
        <mxCell id="M5pZgA5gpFIr3mLiZO6Y-82" value="É feita" style="shape=rhombus;perimeter=rhombusPerimeter;whiteSpace=wrap;html=1;align=center;fontFamily=Helvetica;fontSize=11;fontColor=default;labelBackgroundColor=default;" vertex="1" parent="1">
          <mxGeometry x="360" y="394" width="120" height="60" as="geometry" />
        </mxCell>
        <mxCell id="M5pZgA5gpFIr3mLiZO6Y-94" style="edgeStyle=orthogonalEdgeStyle;shape=connector;rounded=0;orthogonalLoop=1;jettySize=auto;html=1;strokeColor=default;align=center;verticalAlign=middle;fontFamily=Helvetica;fontSize=11;fontColor=default;labelBackgroundColor=default;endArrow=ERone;endFill=0;" edge="1" parent="1" source="M5pZgA5gpFIr3mLiZO6Y-83" target="M5pZgA5gpFIr3mLiZO6Y-40">
          <mxGeometry relative="1" as="geometry" />
        </mxCell>
        <mxCell id="M5pZgA5gpFIr3mLiZO6Y-83" value="Tem" style="shape=rhombus;perimeter=rhombusPerimeter;whiteSpace=wrap;html=1;align=center;fontFamily=Helvetica;fontSize=11;fontColor=default;labelBackgroundColor=default;" vertex="1" parent="1">
          <mxGeometry x="570" y="460" width="120" height="60" as="geometry" />
        </mxCell>
        <mxCell id="M5pZgA5gpFIr3mLiZO6Y-98" style="edgeStyle=orthogonalEdgeStyle;shape=connector;rounded=0;orthogonalLoop=1;jettySize=auto;html=1;strokeColor=default;align=center;verticalAlign=middle;fontFamily=Helvetica;fontSize=11;fontColor=default;labelBackgroundColor=default;endArrow=ERmany;endFill=0;" edge="1" parent="1" source="M5pZgA5gpFIr3mLiZO6Y-84" target="M5pZgA5gpFIr3mLiZO6Y-37">
          <mxGeometry relative="1" as="geometry" />
        </mxCell>
        <mxCell id="M5pZgA5gpFIr3mLiZO6Y-84" value="Tem" style="shape=rhombus;perimeter=rhombusPerimeter;whiteSpace=wrap;html=1;align=center;fontFamily=Helvetica;fontSize=11;fontColor=default;labelBackgroundColor=default;" vertex="1" parent="1">
          <mxGeometry x="760" y="384" width="120" height="60" as="geometry" />
        </mxCell>
        <mxCell id="M5pZgA5gpFIr3mLiZO6Y-95" style="edgeStyle=none;shape=connector;rounded=0;orthogonalLoop=1;jettySize=auto;html=1;strokeColor=default;align=center;verticalAlign=middle;fontFamily=Helvetica;fontSize=11;fontColor=default;labelBackgroundColor=default;endArrow=ERone;endFill=0;" edge="1" parent="1" source="M5pZgA5gpFIr3mLiZO6Y-85" target="M5pZgA5gpFIr3mLiZO6Y-39">
          <mxGeometry relative="1" as="geometry" />
        </mxCell>
        <mxCell id="M5pZgA5gpFIr3mLiZO6Y-96" style="edgeStyle=none;shape=connector;rounded=0;orthogonalLoop=1;jettySize=auto;html=1;strokeColor=default;align=center;verticalAlign=middle;fontFamily=Helvetica;fontSize=11;fontColor=default;labelBackgroundColor=default;endArrow=ERmany;endFill=0;" edge="1" parent="1" source="M5pZgA5gpFIr3mLiZO6Y-85" target="M5pZgA5gpFIr3mLiZO6Y-35">
          <mxGeometry relative="1" as="geometry" />
        </mxCell>
        <mxCell id="M5pZgA5gpFIr3mLiZO6Y-85" value="Realizada" style="shape=rhombus;perimeter=rhombusPerimeter;whiteSpace=wrap;html=1;align=center;fontFamily=Helvetica;fontSize=11;fontColor=default;labelBackgroundColor=default;" vertex="1" parent="1">
          <mxGeometry x="770" y="270" width="120" height="60" as="geometry" />
        </mxCell>
      </root>
    </mxGraphModel>
  </diagram>
</mxfile>
